HIERARCHY
ROOT Hips
{
  OFFSET 0.0273292 -0.436096 0.279869
  CHANNELS 6 Xposition Yposition Zposition Zrotation Xrotation Yrotation
  JOINT LHipJoint
  {
    OFFSET 0 0 0
    CHANNELS 6 Xposition Yposition Zposition Zrotation Xrotation Yrotation
    JOINT LeftUpLeg
    {
      OFFSET 1.36306 -1.79463 0
      CHANNELS 6 Xposition Yposition Zposition Zrotation Xrotation Yrotation
      JOINT LeftLeg
      {
        OFFSET 2.44807 -6.72613 0.000295034
        CHANNELS 6 Xposition Yposition Zposition Zrotation Xrotation Yrotation
        JOINT LeftFoot
        {
          OFFSET 2.5622 -7.03959 3.59965e-05
          CHANNELS 6 Xposition Yposition Zposition Zrotation Xrotation Yrotation
          JOINT LeftToeBase
          {
            OFFSET 0.15764 -0.43311 2.32255
            CHANNELS 6 Xposition Yposition Zposition Zrotation Xrotation Yrotation
            End Site
            {
              OFFSET 0 0 0
            }
          }
        }
      }
    }
  }
  JOINT RHipJoint
  {
    OFFSET 0 0 0
    CHANNELS 6 Xposition Yposition Zposition Zrotation Xrotation Yrotation
    JOINT RightUpLeg
    {
      OFFSET -1.30552 -1.79463 0
      CHANNELS 6 Xposition Yposition Zposition Zrotation Xrotation Yrotation
      JOINT RightLeg
      {
        OFFSET -2.54234 -6.98562 -0.000396375
        CHANNELS 6 Xposition Yposition Zposition Zrotation Xrotation Yrotation
        JOINT RightFoot
        {
          OFFSET -2.56826 -7.05623 -4.47982e-05
          CHANNELS 6 Xposition Yposition Zposition Zrotation Xrotation Yrotation
          JOINT RightToeBase
          {
            OFFSET -0.16473 -0.45259 2.36315
            CHANNELS 6 Xposition Yposition Zposition Zrotation Xrotation Yrotation
            End Site
            {
              OFFSET 0 0 0
            }
          }
        }
      }
    }
  }
  JOINT LowerBack
  {
    OFFSET 0 0 0
    CHANNELS 6 Xposition Yposition Zposition Zrotation Xrotation Yrotation
    JOINT Spine
    {
      OFFSET 0.0282699 2.03559 0
      CHANNELS 6 Xposition Yposition Zposition Zrotation Xrotation Yrotation
      JOINT Spine1
      {
        OFFSET 0.05672 2.04885 -0.04275
        CHANNELS 6 Xposition Yposition Zposition Zrotation Xrotation Yrotation
        JOINT Neck
        {
          OFFSET 0 0 0
          CHANNELS 6 Xposition Yposition Zposition Zrotation Xrotation Yrotation
          JOINT Neck1
          {
            OFFSET -0.05417 1.74624 0.17202
            CHANNELS 6 Xposition Yposition Zposition Zrotation Xrotation Yrotation
            JOINT Head
            {
              OFFSET 0.10407 1.76136 -0.12397
              CHANNELS 6 Xposition Yposition Zposition Zrotation Xrotation Yrotation
              End Site
              {
                OFFSET 0 0 0
              }
            }
          }
        }
        JOINT LeftShoulder
        {
          OFFSET 0 0 0
          CHANNELS 6 Xposition Yposition Zposition Zrotation Xrotation Yrotation
          JOINT LeftArm
          {
            OFFSET 3.36241 1.20089 -0.311211
            CHANNELS 6 Xposition Yposition Zposition Zrotation Xrotation Yrotation
            JOINT LeftForeArm
            {
              OFFSET 4.983 0.000197398 0.000166057
              CHANNELS 6 Xposition Yposition Zposition Zrotation Xrotation Yrotation
              JOINT LeftHand
              {
                OFFSET 3.48356 0 1.87849e-05
                CHANNELS 6 Xposition Yposition Zposition Zrotation Xrotation Yrotation
                JOINT LeftFingerBase
                {
                  OFFSET 0 0 0
                  CHANNELS 6 Xposition Yposition Zposition Zrotation Xrotation Yrotation
                  JOINT LeftHandIndex1
                  {
                    OFFSET 0.71526 0 0
                    CHANNELS 6 Xposition Yposition Zposition Zrotation Xrotation Yrotation
                    End Site
                    {
                      OFFSET 0 0 0
                    }
                  }
                }
                JOINT LThumb
                {
                  OFFSET 0 0 0
                  CHANNELS 6 Xposition Yposition Zposition Zrotation Xrotation Yrotation
                  End Site
                  {
                    OFFSET 0 0 0
                  }
                }
              }
            }
          }
        }
        JOINT RightShoulder
        {
          OFFSET 0 0 0
          CHANNELS 6 Xposition Yposition Zposition Zrotation Xrotation Yrotation
          JOINT RightArm
          {
            OFFSET -3.1366 1.37405 -0.404651
            CHANNELS 6 Xposition Yposition Zposition Zrotation Xrotation Yrotation
            JOINT RightForeArm
            {
              OFFSET -5.2419 -5.8808e-05 -0.000165864
              CHANNELS 6 Xposition Yposition Zposition Zrotation Xrotation Yrotation
              JOINT RightHand
              {
                OFFSET -3.44417 0 -2.00002e-05
                CHANNELS 6 Xposition Yposition Zposition Zrotation Xrotation Yrotation
                JOINT RightFingerBase
                {
                  OFFSET 0 0 0
                  CHANNELS 6 Xposition Yposition Zposition Zrotation Xrotation Yrotation
                  JOINT RightHandIndex1
                  {
                    OFFSET -0.62253 0 0
                    CHANNELS 6 Xposition Yposition Zposition Zrotation Xrotation Yrotation
                    End Site
                    {
                      OFFSET 0 0 0
                    }
                  }
                }
                JOINT RThumb
                {
                  OFFSET 0 0 0
                  CHANNELS 6 Xposition Yposition Zposition Zrotation Xrotation Yrotation
                  End Site
                  {
                    OFFSET 0 0 0
                  }
                }
              }
            }
          }
        }
      }
    }
  }
}
MOTION
Frames:	4
Frame Time:	0.00833333
-0.0744754 2.09617 -0.0580298 0.788616 -2.32954 2.03168 0 0 0 1.61513e-16 7.95139e-16 -7.95139e-16 1.36306 -1.79463 5.90225e-08 -12.6796 -3.12354 9.08063 2.44809 -6.72613 -5.40071e-05 -0.450998 9.17708 -1.56209 2.5622 -7.03959 -1.93983e-05 -6.6204 -4.7215 -1.74578 0.15764 -0.43311 2.32255 5.2181e-15 0 -1.59028e-15 0 0 0 1.61513e-16 7.95139e-16 -7.95139e-16 -1.30552 -1.79463 -1.06387e-08 17.862 -12.6054 -8.30217 -2.54244 -6.98559 0.000516065 2.47652 25.8034 -8.45237 -2.56826 -7.05622 4.54751e-05 -0.860234 -14.6977 5.11498 -0.16473 -0.45259 2.36315 -3.97569e-15 -3.97569e-16 -0 0 0 0 1.61513e-16 7.95139e-16 -7.95139e-16 0.02827 2.03559 4.29406e-07 0.674626 3.33886 0.555944 0.05672 2.04885 -0.04275 -3.16813e-16 1.98785e-16 -0 0 0 0 -3.16813e-16 1.98785e-16 -0 -0.05417 1.74624 0.17202 0.0765031 1.54598 -0.2781 0.10407 1.76136 -0.12397 -1.2424e-17 3.97569e-16 -0 0 0 0 -3.16813e-16 1.98785e-16 -0 3.36241 1.20089 -0.31121 -81.8917 5.67457 -0.902497 4.983 0.000188412 0.000168582 1.00086 0.293338 -10.1401 3.48356 4.97002e-06 -1.10889e-05 0.000100604 0 0.000187287 0 0 0 3.97569e-16 -3.97569e-16 -1.59028e-15 0.71526 8.88178e-16 1.11022e-16 5.96354e-16 -7.95139e-16 -3.18055e-15 0 0 0 3.97569e-16 -3.97569e-16 -1.59028e-15 0 0 0 -3.16813e-16 1.98785e-16 -0 -3.1366 1.37405 -0.404649 82.6587 23.9958 0.599464 -5.2419 0.000238934 0.000108081 -1.00031 0.285676 9.80349 -3.44417 5.65471e-06 -8.56357e-06 -9.58173e-05 6.36111e-15 -0.00015974 0 0 0 7.95139e-16 0 -0 -0.62253 -4.44089e-16 0 7.95139e-16 -3.18055e-15 -1.59028e-15 0 0 0 7.95139e-16 0 -0 
-0.0745526 2.09599 -0.0581613 0.790172 -2.33369 2.03531 0 0 0 -2.23633e-16 0 7.95139e-16 1.36306 -1.79463 5.90225e-08 -12.6668 -3.13169 9.09609 2.44809 -6.72613 -5.40071e-05 -0.449582 9.19125 -1.56586 2.5622 -7.03959 -1.93983e-05 -6.63177 -4.72549 -1.7467 0.15764 -0.43311 2.32255 2.03754e-15 -3.97569e-16 -0 0 0 0 -2.23633e-16 0 7.95139e-16 -1.30552 -1.79463 -1.06387e-08 17.8561 -12.6261 -8.31825 -2.54244 -6.98559 0.000516065 2.48234 25.8393 -8.46504 -2.56826 -7.05622 4.54751e-05 -0.862463 -14.7151 5.12106 -0.16473 -0.45259 2.36315 -1.3418e-15 -3.97569e-16 -0 0 0 0 -2.23633e-16 0 7.95139e-16 0.02827 2.03559 4.29406e-07 0.675772 3.34482 0.55694 0.05672 2.04885 -0.04275 -1.18028e-16 -1.98785e-16 -0 0 0 0 -1.05604e-16 0 -0 -0.05417 1.74624 0.17202 0.0766532 1.54874 -0.278598 0.10407 1.76136 -0.12397 3.72721e-17 0 -0 0 0 0 -1.05604e-16 0 -0 3.36241 1.20089 -0.31121 -82.0468 5.68469 -0.904109 4.983 0.000188412 0.000168582 1.0025 0.293887 -10.1582 3.48356 4.97002e-06 -1.10889e-05 9.85072e-05 0 0.000185654 0 0 0 -6.95746e-16 3.97569e-16 -1.59028e-15 0.71526 0 1.11022e-16 -9.93923e-16 7.95139e-16 1.59028e-15 0 0 0 -6.95746e-16 3.97569e-16 -1.59028e-15 0 0 0 -1.05604e-16 0 -0 -3.1366 1.37405 -0.404649 82.8142 24.0386 0.601044 -5.2419 0.000238934 0.000108081 -1.00195 0.286211 9.821 -3.44417 5.65471e-06 -8.56357e-06 -9.21252e-05 -3.18055e-15 -0.000157516 0 0 0 0 0 -1.59028e-15 -0.62253 4.44089e-16 -4.44089e-16 -7.95139e-16 3.18055e-15 -3.18055e-15 0 0 0 0 0 -1.59028e-15 
-0.0747225 2.09558 -0.0584504 0.793597 -2.34283 2.04331 0 0 0 -1.2424e-16 3.97569e-16 -7.95139e-16 1.36306 -1.79463 5.90225e-08 -12.6386 -3.14959 9.13011 2.44809 -6.72613 -5.40071e-05 -0.44646 9.22243 -1.57416 2.5622 -7.03959 -1.93983e-05 -6.65677 -4.73427 -1.74873 0.15764 -0.43311 2.32255 1.44119e-15 0 -3.18055e-15 0 0 0 -1.2424e-16 3.97569e-16 -7.95139e-16 -1.30552 -1.79463 -1.06387e-08 17.8431 -12.6717 -8.35362 -2.54244 -6.98559 0.000516065 2.49522 25.9181 -8.49294 -2.56826 -7.05622 4.54751e-05 -0.867353 -14.7534 5.13446 -0.16473 -0.45259 2.36315 -2.93207e-15 0 1.59028e-15 0 0 0 -1.2424e-16 3.97569e-16 -7.95139e-16 0.02827 2.03559 4.29406e-07 0.678291 3.35793 0.559131 0.05672 2.04885 -0.04275 1.2424e-16 0 1.19271e-15 0 0 0 3.10601e-16 0 1.19271e-15 -0.05417 1.74624 0.17202 0.0769837 1.55482 -0.279691 0.10407 1.76136 -0.12397 6.95746e-16 -1.19271e-15 -3.97569e-16 0 0 0 3.10601e-16 0 1.19271e-15 3.36241 1.20089 -0.31121 -82.388 5.70696 -0.907657 4.983 0.000188412 0.000168582 1.00612 0.295095 -10.198 3.48356 4.97002e-06 -1.10889e-05 9.38944e-05 7.95139e-16 0.000182063 0 0 0 -3.27995e-15 -3.97569e-16 -1.59028e-15 0.71526 -8.88178e-16 1.11022e-16 -3.18055e-15 3.97569e-16 -0 0 0 0 -3.27995e-15 -3.97569e-16 -1.59028e-15 0 0 0 3.10601e-16 0 1.19271e-15 -3.1366 1.37405 -0.404649 83.1564 24.1328 0.604526 -5.2419 0.000238934 0.000108081 -1.00555 0.287389 9.85951 -3.44417 5.65471e-06 -8.56357e-06 -8.40026e-05 9.54166e-15 -0.000152623 0 0 0 -7.95139e-16 3.18055e-15 -0 -0.62253 0 0 7.95139e-16 0 -3.18055e-15 0 0 0 -7.95139e-16 3.18055e-15 -0 
-0.0748924 2.09517 -0.0587395 0.797025 -2.35197 2.0513 0 0 0 6.21202e-17 -7.95139e-16 7.95139e-16 1.36306 -1.79463 5.90225e-08 -12.6104 -3.1675 9.16413 2.44809 -6.72613 -5.40071e-05 -0.443329 9.25361 -1.58247 2.5622 -7.03959 -1.93983e-05 -6.68177 -4.74304 -1.75075 0.15764 -0.43311 2.32255 1.49089e-16 -7.95139e-16 -0 0 0 0 6.21202e-17 -7.95139e-16 7.95139e-16 -1.30552 -1.79463 -1.06387e-08 17.8301 -12.7174 -8.38902 -2.54244 -6.98559 0.000516065 2.50819 25.997 -8.5209 -2.56826 -7.05622 4.54751e-05 -0.872224 -14.7918 5.14786 -0.16473 -0.45259 2.36315 -6.11263e-15 0 -0 0 0 0 6.21202e-17 -7.95139e-16 7.95139e-16 0.02827 2.03559 4.29406e-07 0.680809 3.37103 0.561323 0.05672 2.04885 -0.04275 3.91357e-16 -3.97569e-16 -0 0 0 0 1.92573e-16 -1.98785e-16 3.97569e-16 -0.05417 1.74624 0.17202 0.0773144 1.56089 -0.280785 0.10407 1.76136 -0.12397 -2.36057e-16 -3.97569e-16 -3.97569e-16 0 0 0 1.92573e-16 -1.98785e-16 3.97569e-16 3.36241 1.20089 -0.31121 -82.7292 5.72923 -0.911206 4.983 0.000188412 0.000168582 1.00974 0.296302 -10.2378 3.48356 4.97002e-06 -1.10889e-05 8.92816e-05 7.95139e-16 0.000178471 0 0 0 -1.09332e-15 0 1.59028e-15 0.71526 -8.88178e-16 0 4.96962e-16 0 1.59028e-15 0 0 0 -1.09332e-15 0 1.59028e-15 0 0 0 1.92573e-16 -1.98785e-16 3.97569e-16 -3.1366 1.37405 -0.404649 83.4985 24.227 0.608014 -5.2419 0.000238934 0.000108081 -1.00916 0.288567 9.89803 -3.44417 5.65471e-06 -8.56357e-06 -7.588e-05 -3.18055e-15 -0.000147729 0 0 0 -1.76556e-31 -6.36111e-15 -1.59028e-15 -0.62253 0 -2.22045e-16 -7.95139e-16 -6.36111e-15 -1.59028e-15 0 0 0 -1.76556e-31 -6.36111e-15 -1.59028e-15 
